<svg xmlns="http://www.w3.org/2000/svg" viewBox="0 0 500 500" width="500" height="500">
  <defs>
    <linearGradient id="taskyGrad" x1="0%" y1="100%" x2="100%" y2="0%">
      <stop offset="0%" stop-color="#144d8f"/>
      <stop offset="35%" stop-color="#1e68ab"/>
      <stop offset="70%" stop-color="#2d8cc5"/>
      <stop offset="100%" stop-color="#46aad3"/>
    </linearGradient>
  </defs>
  <path d="M 435.63 40.00 L 434.59 41.04 L 433.56 43.11 L 432.52 44.15 L 432.00 44.15 L 430.44 45.70 L 430.44 46.22 L 428.37 48.30 L 423.70 48.30 L 422.15 49.85 L 422.15 50.37 L 419.56 52.44 L 418.00 54.00 L 418.00 54.52 L 415.93 56.59 L 411.26 56.59 L 409.70 58.15 L 409.70 58.67 L 407.11 60.74 L 405.56 62.30 L 402.96 64.89 L 401.41 66.44 L 398.81 69.04 L 397.26 70.59 L 397.26 71.11 L 395.19 73.19 L 390.52 73.19 L 388.96 74.74 L 388.96 75.26 L 386.37 77.33 L 384.81 78.89 L 382.22 81.48 L 380.67 83.04 L 380.67 83.56 L 378.59 85.63 L 373.93 85.63 L 372.37 87.19 L 372.37 87.70 L 369.78 89.78 L 368.22 91.33 L 368.22 91.85 L 366.15 93.93 L 361.48 93.93 L 359.93 95.48 L 359.93 96.00 L 357.33 98.07 L 355.78 99.63 L 353.19 102.22 L 351.63 103.78 L 349.04 106.37 L 347.48 107.93 L 347.48 108.44 L 345.41 110.52 L 340.74 110.52 L 339.19 112.07 L 339.19 112.59 L 337.11 114.67 L 336.59 114.67 L 335.04 116.22 L 335.04 116.74 L 333.48 118.30 L 331.93 118.81 L 330.89 119.85 L 330.89 121.41 L 331.93 122.44 L 333.48 122.96 L 335.04 124.52 L 335.04 125.04 L 336.59 126.59 L 357.85 126.59 L 359.93 128.67 L 359.93 129.19 L 361.48 130.74 L 374.44 130.74 L 375.48 131.26 L 376.00 131.78 L 376.52 132.81 L 377.04 134.37 L 377.04 135.93 L 376.52 137.48 L 374.44 139.56 L 373.93 139.56 L 372.37 141.11 L 372.37 149.93 L 370.30 152.00 L 369.78 152.00 L 368.22 153.56 L 368.22 158.22 L 365.63 160.30 L 364.07 161.85 L 364.07 170.67 L 362.00 172.74 L 361.48 172.74 L 359.93 174.30 L 359.93 178.96 L 357.85 181.04 L 357.33 181.04 L 355.78 182.59 L 355.78 187.26 L 353.19 189.33 L 351.63 190.89 L 351.63 199.70 L 349.56 201.78 L 349.04 201.78 L 347.48 203.33 L 347.48 208.00 L 344.89 210.07 L 343.33 211.63 L 343.33 220.44 L 341.26 222.52 L 340.74 222.52 L 339.19 224.07 L 339.19 232.89 L 337.11 234.96 L 336.59 234.96 L 335.04 236.52 L 335.04 241.19 L 332.44 243.26 L 330.89 244.81 L 330.89 253.63 L 328.81 255.70 L 328.30 255.70 L 326.74 257.26 L 326.74 261.93 L 324.67 264.00 L 324.15 264.00 L 322.59 265.56 L 322.59 270.22 L 320.00 272.30 L 318.44 273.85 L 318.44 282.67 L 316.37 284.74 L 315.85 284.74 L 314.30 286.30 L 314.30 295.11 L 313.78 296.15 L 313.26 296.67 L 312.22 297.19 L 310.67 297.70 L 309.11 297.70 L 307.56 297.19 L 306.52 296.67 L 306.00 296.15 L 305.48 295.11 L 305.48 290.44 L 303.93 288.89 L 303.41 288.89 L 301.33 286.81 L 301.33 273.85 L 299.78 272.30 L 297.19 270.22 L 297.19 261.41 L 295.63 259.85 L 293.04 257.78 L 293.04 253.11 L 291.48 251.56 L 290.96 251.56 L 288.89 249.48 L 288.89 240.67 L 287.33 239.11 L 284.74 237.04 L 284.74 232.37 L 283.19 230.81 L 282.67 230.81 L 280.59 228.74 L 280.59 219.93 L 279.04 218.37 L 278.52 218.37 L 276.44 216.30 L 276.44 207.48 L 274.89 205.93 L 274.37 205.93 L 272.30 203.85 L 272.30 195.04 L 270.74 193.48 L 270.22 193.48 L 268.15 191.41 L 268.15 182.59 L 266.59 181.04 L 266.07 181.04 L 264.00 178.96 L 264.00 170.15 L 262.44 168.59 L 261.93 168.59 L 259.85 166.52 L 259.85 166.00 L 258.30 164.44 L 220.44 164.44 L 218.89 166.00 L 218.89 166.52 L 216.81 168.59 L 216.30 168.59 L 214.74 170.15 L 214.74 178.96 L 212.67 181.04 L 212.15 181.04 L 210.59 182.59 L 210.59 191.41 L 208.52 193.48 L 208.00 193.48 L 206.44 195.04 L 206.44 199.70 L 204.37 201.78 L 203.85 201.78 L 202.30 203.33 L 202.30 208.00 L 199.70 210.07 L 198.15 211.63 L 198.15 220.44 L 196.07 222.52 L 195.56 222.52 L 194.00 224.07 L 194.00 232.89 L 191.93 234.96 L 191.41 234.96 L 189.85 236.52 L 189.85 245.33 L 187.78 247.41 L 187.26 247.41 L 185.70 248.96 L 185.70 257.78 L 183.63 259.85 L 183.11 259.85 L 181.56 261.41 L 181.56 266.07 L 178.96 268.15 L 177.41 269.70 L 177.41 278.52 L 175.33 280.59 L 174.81 280.59 L 173.26 282.15 L 173.26 286.81 L 170.67 288.89 L 169.11 290.44 L 169.11 299.26 L 167.04 301.33 L 166.52 301.33 L 164.96 302.89 L 164.96 307.56 L 162.37 309.63 L 161.85 310.15 L 160.81 312.22 L 159.26 313.78 L 157.70 313.78 L 156.15 312.22 L 155.11 310.15 L 154.59 309.63 L 152.00 307.56 L 152.00 211.63 L 152.52 210.59 L 153.04 210.07 L 154.07 209.56 L 187.78 209.56 L 189.33 208.00 L 189.33 203.33 L 191.41 201.26 L 191.93 201.26 L 193.48 199.70 L 193.48 195.04 L 196.07 192.96 L 197.63 191.41 L 197.63 182.59 L 200.22 180.52 L 201.78 178.96 L 201.78 166.00 L 200.22 164.44 L 62.81 164.44 L 61.26 166.00 L 61.26 166.52 L 58.67 168.59 L 57.11 170.15 L 55.04 172.74 L 54.52 172.74 L 52.96 174.30 L 52.96 183.11 L 50.89 185.19 L 50.37 185.19 L 48.81 186.74 L 48.81 191.41 L 46.74 193.48 L 46.22 193.48 L 44.67 195.04 L 44.67 199.70 L 42.59 201.78 L 42.07 201.78 L 40.52 203.33 L 40.00 204.89 L 40.00 205.93 L 40.52 206.44 L 40.52 208.00 L 42.07 209.56 L 104.81 209.56 L 105.85 210.07 L 106.37 210.59 L 106.89 211.63 L 106.89 320.00 L 108.44 321.56 L 111.04 323.63 L 111.04 332.44 L 112.59 334.00 L 115.19 336.07 L 115.19 340.74 L 116.74 342.30 L 117.26 342.30 L 119.33 344.89 L 120.89 346.44 L 123.48 349.04 L 125.04 350.59 L 127.63 353.19 L 129.19 354.74 L 131.78 356.81 L 131.78 357.33 L 133.33 358.89 L 138.00 358.89 L 140.07 361.48 L 141.63 363.04 L 171.19 363.04 L 172.74 361.48 L 174.81 358.89 L 179.48 358.89 L 181.04 357.33 L 181.04 356.81 L 183.63 354.74 L 185.19 353.19 L 185.19 352.67 L 187.26 350.59 L 191.93 350.59 L 193.48 349.04 L 193.48 348.52 L 195.56 346.44 L 196.07 346.44 L 197.63 344.89 L 197.63 340.22 L 199.70 338.15 L 200.22 338.15 L 201.78 336.59 L 201.78 331.93 L 204.37 329.85 L 205.93 328.30 L 205.93 319.48 L 208.00 317.41 L 208.52 317.41 L 210.07 315.85 L 210.07 307.04 L 212.15 304.96 L 212.67 304.96 L 214.22 303.41 L 214.22 294.59 L 216.30 292.52 L 216.81 292.52 L 218.37 290.96 L 218.37 286.30 L 220.96 284.22 L 222.52 282.67 L 222.52 273.85 L 224.59 271.78 L 225.11 271.78 L 226.67 270.22 L 226.67 265.56 L 229.26 263.48 L 230.81 261.93 L 230.81 253.11 L 232.89 251.04 L 233.41 251.04 L 234.96 249.48 L 234.96 240.67 L 235.48 239.63 L 236.00 239.11 L 237.04 238.59 L 238.59 238.07 L 240.15 238.07 L 241.70 238.59 L 242.74 239.11 L 243.26 239.63 L 243.78 240.67 L 243.78 249.48 L 245.33 251.04 L 245.85 251.04 L 247.93 253.11 L 247.93 261.93 L 249.48 263.48 L 250.00 263.48 L 252.07 265.56 L 252.07 278.52 L 253.63 280.07 L 256.22 282.15 L 256.22 286.81 L 257.78 288.37 L 258.30 288.37 L 260.37 290.44 L 260.37 299.26 L 261.93 300.81 L 262.44 300.81 L 264.52 302.89 L 264.52 311.70 L 266.07 313.26 L 268.67 315.33 L 268.67 320.00 L 270.22 321.56 L 270.74 321.56 L 272.81 323.63 L 272.81 332.44 L 274.37 334.00 L 274.89 334.00 L 276.96 336.07 L 276.96 344.89 L 278.52 346.44 L 279.04 346.44 L 281.11 348.52 L 281.11 357.33 L 282.67 358.89 L 283.19 358.89 L 285.26 360.96 L 285.26 361.48 L 286.81 363.04 L 332.96 363.04 L 334.52 361.48 L 334.52 360.96 L 336.59 358.89 L 337.11 358.89 L 338.67 357.33 L 338.67 348.52 L 340.74 346.44 L 341.26 346.44 L 342.81 344.89 L 342.81 340.22 L 345.41 338.15 L 346.96 336.59 L 346.96 327.78 L 349.04 325.70 L 349.56 325.70 L 351.11 324.15 L 351.11 319.48 L 353.70 317.41 L 355.26 315.85 L 355.26 307.04 L 357.33 304.96 L 357.85 304.96 L 359.41 303.41 L 359.41 294.59 L 361.48 292.52 L 362.00 292.52 L 363.56 290.96 L 363.56 286.30 L 366.15 284.22 L 367.70 282.67 L 367.70 273.85 L 369.78 271.78 L 370.30 271.78 L 371.85 270.22 L 371.85 265.56 L 374.44 263.48 L 376.00 261.93 L 376.00 253.11 L 378.07 251.04 L 378.59 251.04 L 380.15 249.48 L 380.15 244.81 L 382.74 242.74 L 384.30 241.19 L 384.30 232.37 L 386.37 230.30 L 386.89 230.30 L 388.44 228.74 L 388.44 224.07 L 391.04 222.00 L 392.59 220.44 L 392.59 211.63 L 394.67 209.56 L 395.19 209.56 L 396.74 208.00 L 396.74 199.19 L 398.81 197.11 L 399.33 197.11 L 400.89 195.56 L 400.89 190.89 L 403.48 188.81 L 405.04 187.26 L 405.04 178.44 L 407.11 176.37 L 407.63 176.37 L 409.19 174.81 L 409.19 170.15 L 411.78 168.07 L 413.33 166.52 L 413.33 157.70 L 415.41 155.63 L 415.93 155.63 L 417.48 154.07 L 417.48 153.56 L 419.56 151.48 L 421.11 150.96 L 422.67 150.96 L 424.22 151.48 L 426.30 153.56 L 426.30 154.07 L 427.85 155.63 L 432.52 155.63 L 434.59 157.70 L 434.59 158.22 L 436.15 159.78 L 440.81 159.78 L 442.89 161.85 L 442.89 162.37 L 444.44 163.93 L 447.04 166.00 L 447.04 166.52 L 448.59 168.07 L 453.26 168.07 L 454.81 169.63 L 455.33 171.19 L 456.37 172.22 L 457.93 172.22 L 458.96 171.19 L 459.48 170.15 L 459.48 168.07 L 458.96 149.41 L 457.41 147.85 L 456.89 147.85 L 454.81 145.78 L 454.81 124.52 L 453.26 122.96 L 452.74 122.96 L 450.67 120.89 L 450.67 99.63 L 449.11 98.07 L 448.59 98.07 L 446.52 96.00 L 446.52 74.74 L 444.96 73.19 L 444.44 73.19 L 442.37 71.11 L 442.37 49.85 L 440.81 48.30 L 440.30 48.30 L 438.22 46.22 L 438.74 43.11 L 438.74 42.07 L 438.22 41.04 L 437.19 40.00 Z" fill="url(#taskyGrad)" />
</svg>